<mxfile host="app.diagrams.net" modified="2024-02-27T15:15:20.499Z" agent="Mozilla/5.0 (Windows NT 10.0; Win64; x64) AppleWebKit/537.36 (KHTML, like Gecko) Chrome/122.0.0.0 Safari/537.36" etag="bSDTvO3uSRckgIJpoz7Z" version="23.1.7" type="device">
  <diagram id="2EvIueCw9RJc-RDT4l-M" name="Page-1">
    <mxGraphModel dx="1434" dy="1949" grid="1" gridSize="10" guides="1" tooltips="1" connect="1" arrows="1" fold="1" page="1" pageScale="1" pageWidth="827" pageHeight="1169" math="0" shadow="0">
      <root>
        <mxCell id="0" />
        <mxCell id="1" parent="0" />
        <mxCell id="sKdGSS0betK-6QWnVQbC-2" value="Expenses" style="swimlane;fontStyle=0;childLayout=stackLayout;horizontal=1;startSize=26;horizontalStack=0;resizeParent=1;resizeParentMax=0;resizeLast=0;collapsible=1;marginBottom=0;" parent="1" vertex="1">
          <mxGeometry x="80" y="-370" width="180" height="156" as="geometry" />
        </mxCell>
        <mxCell id="sKdGSS0betK-6QWnVQbC-3" value="Id int PK    " style="text;strokeColor=none;fillColor=none;align=left;verticalAlign=top;spacingLeft=4;spacingRight=4;overflow=hidden;rotatable=0;points=[[0,0.5],[1,0.5]];portConstraint=eastwest;" parent="sKdGSS0betK-6QWnVQbC-2" vertex="1">
          <mxGeometry y="26" width="180" height="26" as="geometry" />
        </mxCell>
        <mxCell id="sKdGSS0betK-6QWnVQbC-4" value="Amount real, NOT NULL&#xa;" style="text;strokeColor=none;fillColor=none;align=left;verticalAlign=top;spacingLeft=4;spacingRight=4;overflow=hidden;rotatable=0;points=[[0,0.5],[1,0.5]];portConstraint=eastwest;" parent="sKdGSS0betK-6QWnVQbC-2" vertex="1">
          <mxGeometry y="52" width="180" height="26" as="geometry" />
        </mxCell>
        <mxCell id="sKdGSS0betK-6QWnVQbC-5" value="DateTime datetime NOT NULL" style="text;strokeColor=none;fillColor=none;align=left;verticalAlign=top;spacingLeft=4;spacingRight=4;overflow=hidden;rotatable=0;points=[[0,0.5],[1,0.5]];portConstraint=eastwest;" parent="sKdGSS0betK-6QWnVQbC-2" vertex="1">
          <mxGeometry y="78" width="180" height="26" as="geometry" />
        </mxCell>
        <mxCell id="sKdGSS0betK-6QWnVQbC-6" value="CategoryId int FK NOT NULL&#xa;" style="text;strokeColor=none;fillColor=none;align=left;verticalAlign=top;spacingLeft=4;spacingRight=4;overflow=hidden;rotatable=0;points=[[0,0.5],[1,0.5]];portConstraint=eastwest;" parent="sKdGSS0betK-6QWnVQbC-2" vertex="1">
          <mxGeometry y="104" width="180" height="26" as="geometry" />
        </mxCell>
        <mxCell id="sKdGSS0betK-6QWnVQbC-13" value="UserId int FK NOT NULL" style="text;strokeColor=none;fillColor=none;align=left;verticalAlign=top;spacingLeft=4;spacingRight=4;overflow=hidden;rotatable=0;points=[[0,0.5],[1,0.5]];portConstraint=eastwest;" parent="sKdGSS0betK-6QWnVQbC-2" vertex="1">
          <mxGeometry y="130" width="180" height="26" as="geometry" />
        </mxCell>
        <mxCell id="sKdGSS0betK-6QWnVQbC-7" value="Categories" style="swimlane;fontStyle=0;childLayout=stackLayout;horizontal=1;startSize=26;horizontalStack=0;resizeParent=1;resizeParentMax=0;resizeLast=0;collapsible=1;marginBottom=0;" parent="1" vertex="1">
          <mxGeometry x="390" y="-370" width="196" height="104" as="geometry" />
        </mxCell>
        <mxCell id="sKdGSS0betK-6QWnVQbC-8" value="Id int PK" style="text;strokeColor=none;fillColor=none;align=left;verticalAlign=top;spacingLeft=4;spacingRight=4;overflow=hidden;rotatable=0;points=[[0,0.5],[1,0.5]];portConstraint=eastwest;" parent="sKdGSS0betK-6QWnVQbC-7" vertex="1">
          <mxGeometry y="26" width="196" height="26" as="geometry" />
        </mxCell>
        <mxCell id="sKdGSS0betK-6QWnVQbC-9" value="Title nvarchar(max) NOT NULL" style="text;strokeColor=none;fillColor=none;align=left;verticalAlign=top;spacingLeft=4;spacingRight=4;overflow=hidden;rotatable=0;points=[[0,0.5],[1,0.5]];portConstraint=eastwest;" parent="sKdGSS0betK-6QWnVQbC-7" vertex="1">
          <mxGeometry y="52" width="196" height="26" as="geometry" />
        </mxCell>
        <mxCell id="aOyqJTMjITfJ2iCw0nSJ-1" value="UserId int FK NOT NULL" style="text;strokeColor=none;fillColor=none;align=left;verticalAlign=top;spacingLeft=4;spacingRight=4;overflow=hidden;rotatable=0;points=[[0,0.5],[1,0.5]];portConstraint=eastwest;" parent="sKdGSS0betK-6QWnVQbC-7" vertex="1">
          <mxGeometry y="78" width="196" height="26" as="geometry" />
        </mxCell>
        <mxCell id="aOyqJTMjITfJ2iCw0nSJ-3" value="" style="edgeStyle=orthogonalEdgeStyle;rounded=0;orthogonalLoop=1;jettySize=auto;html=1;" parent="1" source="sKdGSS0betK-6QWnVQbC-14" target="aOyqJTMjITfJ2iCw0nSJ-1" edge="1">
          <mxGeometry relative="1" as="geometry">
            <Array as="points">
              <mxPoint x="630" y="-180" />
              <mxPoint x="630" y="-279" />
            </Array>
          </mxGeometry>
        </mxCell>
        <mxCell id="sKdGSS0betK-6QWnVQbC-14" value="Users" style="swimlane;fontStyle=0;childLayout=stackLayout;horizontal=1;startSize=26;horizontalStack=0;resizeParent=1;resizeParentMax=0;resizeLast=0;collapsible=1;marginBottom=0;" parent="1" vertex="1">
          <mxGeometry x="370" y="-220" width="236" height="104" as="geometry" />
        </mxCell>
        <mxCell id="sKdGSS0betK-6QWnVQbC-15" value="Id int PK" style="text;strokeColor=none;fillColor=none;align=left;verticalAlign=top;spacingLeft=4;spacingRight=4;overflow=hidden;rotatable=0;points=[[0,0.5],[1,0.5]];portConstraint=eastwest;" parent="sKdGSS0betK-6QWnVQbC-14" vertex="1">
          <mxGeometry y="26" width="236" height="26" as="geometry" />
        </mxCell>
        <mxCell id="sKdGSS0betK-6QWnVQbC-16" value="Name nvarchar(450) NOT NULL" style="text;strokeColor=none;fillColor=none;align=left;verticalAlign=top;spacingLeft=4;spacingRight=4;overflow=hidden;rotatable=0;points=[[0,0.5],[1,0.5]];portConstraint=eastwest;" parent="sKdGSS0betK-6QWnVQbC-14" vertex="1">
          <mxGeometry y="52" width="236" height="26" as="geometry" />
        </mxCell>
        <mxCell id="sKdGSS0betK-6QWnVQbC-17" value="Password sting NOT NULL" style="text;strokeColor=none;fillColor=none;align=left;verticalAlign=top;spacingLeft=4;spacingRight=4;overflow=hidden;rotatable=0;points=[[0,0.5],[1,0.5]];portConstraint=eastwest;" parent="sKdGSS0betK-6QWnVQbC-14" vertex="1">
          <mxGeometry y="78" width="236" height="26" as="geometry" />
        </mxCell>
        <mxCell id="RNfgBFR58_Q0d8X-sNFv-2" value="ExpensesHistory" style="swimlane;fontStyle=0;childLayout=stackLayout;horizontal=1;startSize=26;horizontalStack=0;resizeParent=1;resizeParentMax=0;resizeLast=0;collapsible=1;marginBottom=0;" vertex="1" parent="1">
          <mxGeometry x="40" y="-170" width="260" height="286" as="geometry" />
        </mxCell>
        <mxCell id="RNfgBFR58_Q0d8X-sNFv-3" value="Id int PK    " style="text;strokeColor=none;fillColor=none;align=left;verticalAlign=top;spacingLeft=4;spacingRight=4;overflow=hidden;rotatable=0;points=[[0,0.5],[1,0.5]];portConstraint=eastwest;" vertex="1" parent="RNfgBFR58_Q0d8X-sNFv-2">
          <mxGeometry y="26" width="260" height="26" as="geometry" />
        </mxCell>
        <mxCell id="RNfgBFR58_Q0d8X-sNFv-4" value="DateCreated datetime NOT NULL" style="text;strokeColor=none;fillColor=none;align=left;verticalAlign=top;spacingLeft=4;spacingRight=4;overflow=hidden;rotatable=0;points=[[0,0.5],[1,0.5]];portConstraint=eastwest;" vertex="1" parent="RNfgBFR58_Q0d8X-sNFv-2">
          <mxGeometry y="52" width="260" height="26" as="geometry" />
        </mxCell>
        <mxCell id="RNfgBFR58_Q0d8X-sNFv-5" value="UserId int FK NOT NULL" style="text;strokeColor=none;fillColor=none;align=left;verticalAlign=top;spacingLeft=4;spacingRight=4;overflow=hidden;rotatable=0;points=[[0,0.5],[1,0.5]];portConstraint=eastwest;" vertex="1" parent="RNfgBFR58_Q0d8X-sNFv-2">
          <mxGeometry y="78" width="260" height="26" as="geometry" />
        </mxCell>
        <mxCell id="RNfgBFR58_Q0d8X-sNFv-6" value="ActionType int NOT NULL" style="text;strokeColor=none;fillColor=none;align=left;verticalAlign=top;spacingLeft=4;spacingRight=4;overflow=hidden;rotatable=0;points=[[0,0.5],[1,0.5]];portConstraint=eastwest;" vertex="1" parent="RNfgBFR58_Q0d8X-sNFv-2">
          <mxGeometry y="104" width="260" height="26" as="geometry" />
        </mxCell>
        <mxCell id="RNfgBFR58_Q0d8X-sNFv-7" value="NewAmount real NOT NULL    " style="text;strokeColor=none;fillColor=none;align=left;verticalAlign=top;spacingLeft=4;spacingRight=4;overflow=hidden;rotatable=0;points=[[0,0.5],[1,0.5]];portConstraint=eastwest;" vertex="1" parent="RNfgBFR58_Q0d8X-sNFv-2">
          <mxGeometry y="130" width="260" height="26" as="geometry" />
        </mxCell>
        <mxCell id="RNfgBFR58_Q0d8X-sNFv-13" value="NewDateTime datetime NOT NULL    " style="text;strokeColor=none;fillColor=none;align=left;verticalAlign=top;spacingLeft=4;spacingRight=4;overflow=hidden;rotatable=0;points=[[0,0.5],[1,0.5]];portConstraint=eastwest;" vertex="1" parent="RNfgBFR58_Q0d8X-sNFv-2">
          <mxGeometry y="156" width="260" height="26" as="geometry" />
        </mxCell>
        <mxCell id="RNfgBFR58_Q0d8X-sNFv-14" value="NewCategoryTitle nvarchar(max) NOT NULL" style="text;strokeColor=none;fillColor=none;align=left;verticalAlign=top;spacingLeft=4;spacingRight=4;overflow=hidden;rotatable=0;points=[[0,0.5],[1,0.5]];portConstraint=eastwest;" vertex="1" parent="RNfgBFR58_Q0d8X-sNFv-2">
          <mxGeometry y="182" width="260" height="26" as="geometry" />
        </mxCell>
        <mxCell id="RNfgBFR58_Q0d8X-sNFv-15" value="OldAmount real NULL" style="text;strokeColor=none;fillColor=none;align=left;verticalAlign=top;spacingLeft=4;spacingRight=4;overflow=hidden;rotatable=0;points=[[0,0.5],[1,0.5]];portConstraint=eastwest;" vertex="1" parent="RNfgBFR58_Q0d8X-sNFv-2">
          <mxGeometry y="208" width="260" height="26" as="geometry" />
        </mxCell>
        <mxCell id="RNfgBFR58_Q0d8X-sNFv-16" value="OldDateTime datetime NULL" style="text;strokeColor=none;fillColor=none;align=left;verticalAlign=top;spacingLeft=4;spacingRight=4;overflow=hidden;rotatable=0;points=[[0,0.5],[1,0.5]];portConstraint=eastwest;" vertex="1" parent="RNfgBFR58_Q0d8X-sNFv-2">
          <mxGeometry y="234" width="260" height="26" as="geometry" />
        </mxCell>
        <mxCell id="RNfgBFR58_Q0d8X-sNFv-17" value="OldCategoryTitle nvarchar(max) NULL" style="text;strokeColor=none;fillColor=none;align=left;verticalAlign=top;spacingLeft=4;spacingRight=4;overflow=hidden;rotatable=0;points=[[0,0.5],[1,0.5]];portConstraint=eastwest;" vertex="1" parent="RNfgBFR58_Q0d8X-sNFv-2">
          <mxGeometry y="260" width="260" height="26" as="geometry" />
        </mxCell>
        <mxCell id="RNfgBFR58_Q0d8X-sNFv-8" style="edgeStyle=orthogonalEdgeStyle;rounded=0;orthogonalLoop=1;jettySize=auto;html=1;entryX=0;entryY=0.5;entryDx=0;entryDy=0;" edge="1" parent="1" source="RNfgBFR58_Q0d8X-sNFv-5" target="sKdGSS0betK-6QWnVQbC-15">
          <mxGeometry relative="1" as="geometry">
            <Array as="points">
              <mxPoint x="320" y="-79" />
              <mxPoint x="320" y="-181" />
            </Array>
          </mxGeometry>
        </mxCell>
        <mxCell id="RNfgBFR58_Q0d8X-sNFv-9" style="edgeStyle=orthogonalEdgeStyle;rounded=0;orthogonalLoop=1;jettySize=auto;html=1;entryX=0;entryY=0.5;entryDx=0;entryDy=0;" edge="1" parent="1" source="sKdGSS0betK-6QWnVQbC-6" target="sKdGSS0betK-6QWnVQbC-8">
          <mxGeometry relative="1" as="geometry" />
        </mxCell>
        <mxCell id="RNfgBFR58_Q0d8X-sNFv-10" style="edgeStyle=orthogonalEdgeStyle;rounded=0;orthogonalLoop=1;jettySize=auto;html=1;entryX=0;entryY=0.5;entryDx=0;entryDy=0;" edge="1" parent="1" source="sKdGSS0betK-6QWnVQbC-13" target="sKdGSS0betK-6QWnVQbC-15">
          <mxGeometry relative="1" as="geometry">
            <Array as="points">
              <mxPoint x="320" y="-227" />
              <mxPoint x="320" y="-181" />
            </Array>
          </mxGeometry>
        </mxCell>
      </root>
    </mxGraphModel>
  </diagram>
</mxfile>
